<svg xmlns="http://www.w3.org/2000/svg" viewBox="0 0 16 16"><symbol xmlns="http://www.w3.org/2000/svg" id="a" fill="#737373" viewBox="0 0 16 16"><path fill="#737373" fill-rule="evenodd" d="M2.667 8.2V8c0-.98.003-1.698.05-2.269.05-.602.144-.987.302-1.299A3.23 3.23 0 0 1 4.432 3.02c.312-.158.697-.253 1.3-.302.608-.05 1.385-.05 2.468-.05h3.008a1.4 1.4 0 0 0-.116-.327 1.6 1.6 0 0 0-.699-.699 1.6 1.6 0 0 0-.62-.159c-.192-.015-.423-.015-.684-.015h-.916c-1.05 0-1.876 0-2.54.054-.676.055-1.237.17-1.746.429A4.43 4.43 0 0 0 1.95 3.887c-.26.51-.374 1.07-.429 1.747-.054.663-.054 1.489-.054 2.54v.915c0 .261 0 .492.015.683.017.204.054.415.16.621a1.6 1.6 0 0 0 .698.7q.163.08.327.115zM6.72 4h-.023c-.347 0-.643 0-.886.02-.255.02-.504.065-.742.184a1.93 1.93 0 0 0-.865.865 2 2 0 0 0-.184.742C4 6.054 4 6.35 4 6.697v5.273c0 .347 0 .643.02.886.02.255.065.504.184.742.187.374.49.678.865.865.238.119.487.164.742.184.243.02.539.02.886.02h4.606c.348 0 .643 0 .886-.02.255-.02.504-.065.742-.184.375-.187.678-.49.865-.865a2 2 0 0 0 .185-.742c.02-.243.02-.539.02-.886V6.697c0-.347 0-.643-.02-.886a2 2 0 0 0-.185-.742 1.93 1.93 0 0 0-.865-.865 2 2 0 0 0-.742-.184C11.946 4 11.651 4 11.303 4zM5.606 5.277c.043-.021.119-.047.301-.061.19-.015.436-.016.813-.016h4.56c.377 0 .624 0 .813.016.182.014.258.04.302.061a.73.73 0 0 1 .328.329c.021.043.047.119.061.301.016.19.016.436.016.813v5.227c0 .377 0 .624-.016.813-.014.182-.04.258-.061.301a.73.73 0 0 1-.328.329.9.9 0 0 1-.302.061 11 11 0 0 1-.813.016H6.72c-.377 0-.624 0-.813-.016-.182-.014-.258-.04-.301-.062a.73.73 0 0 1-.329-.328c-.021-.043-.047-.119-.061-.301-.015-.19-.016-.436-.016-.813V6.72c0-.377 0-.624.016-.813.014-.182.04-.258.061-.301a.73.73 0 0 1 .329-.329" clip-rule="evenodd"/></symbol><use href="#a"/></svg>