<svg xmlns="http://www.w3.org/2000/svg" width="32" height="32" fill="rgb(10 151 136)"><path fill="rgb(10 151 136)" d="M24.485 7.515A11.92 11.92 0 0 0 16 4a11.92 11.92 0 0 0-8.485 3.515A11.92 11.92 0 0 0 4 16c0 3.205 1.248 6.218 3.515 8.485A11.92 11.92 0 0 0 16 27.999c3.205 0 6.218-1.248 8.485-3.514A11.92 11.92 0 0 0 28 16a11.92 11.92 0 0 0-3.515-8.485m-3.53 14.034-1.75-2.464 1.238-3.812 2.816-.858 3.229 2.346a10.44 10.44 0 0 1-1.56 4.787zm-9.909 0H7.072a10.44 10.44 0 0 1-1.56-4.788l3.23-2.346 2.815.858 1.238 3.812zM7.75 13.313l-2.209 1.592a10.4 10.4 0 0 1 1.355-4.163zm6.406 5.155-1.14-3.508L16 12.79l2.984 2.169-1.14 3.508zm10.094-5.155c-.183-1.126.854-2.571.854-2.571a10.4 10.4 0 0 1 1.355 4.163s-2.11-.978-2.209-1.592m-.215-4.088L22.81 13l-2.815.86-3.252-2.363V8.602l3.222-2.341a10.57 10.57 0 0 1 4.071 2.964m-5.845-3.51-2.076 1.8-2.304-1.8a10.5 10.5 0 0 1 4.38 0m-6.154.546 3.222 2.34v2.895l-3.252 2.362L9.19 13 7.964 9.226a10.57 10.57 0 0 1 4.072-2.964M8.19 23.033l2.856-.156.68 2.73a10.6 10.6 0 0 1-3.536-2.574m5.293 3.177-1.232-3.794L14 19.952h4l1.75 2.464-1.233 3.793a10.5 10.5 0 0 1-5.034 0m6.791-.604.836-2.573h2.7a10.6 10.6 0 0 1-3.536 2.573"/></svg>