<svg width="134" height="24" viewBox="0 0 134 24" fill="none" xmlns="http://www.w3.org/2000/svg">
<path fill-rule="evenodd" clip-rule="evenodd" d="M17.6334 16.5291C17.6334 18.5132 16.9546 20.1318 15.5449 21.3327C14.1352 22.5335 12.3077 23.1601 10.0104 23.1601H0.455566V0.5H9.38385C13.9263 0.5 16.8502 2.95397 16.8502 6.9221C16.8502 8.85395 16.1192 10.3159 14.7617 11.4123C16.6936 12.561 17.6334 14.2318 17.6334 16.5291ZM6.25112 5.66901V9.21944H9.22721C10.2715 9.21944 11.0546 8.59289 11.0546 7.44422C11.0546 6.39998 10.2715 5.66901 9.22721 5.66901H6.25112ZM9.85376 17.9911C11.0024 17.9911 11.8378 17.2079 11.8378 16.0592C11.8378 14.9106 11.0546 14.1274 9.85376 14.1274H6.25112V17.9389H9.85376V17.9911ZM24.8387 17.0513C25.413 18.3566 26.5617 19.0354 28.4413 19.0354C29.59 19.0354 30.582 18.6699 31.3652 17.8867L35.2289 20.6017C33.6625 22.5858 31.313 23.63 28.2847 23.63C25.5174 23.63 23.3245 22.8468 21.7059 21.2283C20.0351 19.6097 19.252 17.5734 19.252 15.1194C19.252 12.7177 20.0351 10.6292 21.6537 9.01061C23.2723 7.33982 25.3608 6.55664 27.8148 6.55664C30.2165 6.55664 32.2006 7.33982 33.8192 8.9584C35.3855 10.577 36.1687 12.6133 36.1687 15.0672C36.1687 15.7982 36.1165 16.477 35.9599 17.0513H24.8387ZM30.9997 13.3442C30.582 11.8301 29.5378 11.0991 27.9714 11.0991C26.3006 11.0991 25.2564 11.8301 24.7864 13.3442H30.9997ZM45.7757 12.1433H49.1173V6.97428H45.7757V2.43182L40.3979 4.0504V7.0265H37.9961V12.1955H40.3979V16.999C40.3979 19.5574 41.0244 21.3326 42.3297 22.3247C43.635 23.3167 45.9323 23.5778 49.1173 23.2123V18.3565C46.7155 18.461 45.7757 18.2521 45.7757 16.8424V12.1433Z" fill="#FF0025"/>
<path fill-rule="evenodd" clip-rule="evenodd" d="M67.1304 21.3327C68.5401 20.1318 69.2189 18.5132 69.2189 16.5291C69.2189 14.2318 68.279 12.561 66.3994 11.4123C67.7569 10.3159 68.4879 8.85395 68.4879 6.9221C68.4879 2.95397 65.564 0.5 61.0215 0.5H52.0933V23.1601H61.5959C63.8932 23.1601 65.7206 22.5335 67.1304 21.3327ZM57.8888 9.21944V5.66901H60.8649C61.9092 5.66901 62.6923 6.39998 62.6923 7.44422C62.6923 8.59289 61.9092 9.21944 60.8649 9.21944H57.8888ZM63.4233 16.0592C63.4233 17.2079 62.5879 17.9911 61.4392 17.9911V17.9389H57.8888V14.1274H61.4392C62.6401 14.1274 63.4233 14.9106 63.4233 16.0592ZM70.8896 15.0672C70.8896 17.469 71.725 19.5052 73.3958 21.176C75.0666 22.7946 77.1029 23.63 79.5047 23.63C81.9064 23.63 83.9427 22.8468 85.6135 21.176C87.2843 19.5052 88.1197 17.469 88.1197 15.0672C88.1197 12.6654 87.2843 10.6814 85.6135 9.01058C83.9949 7.33979 81.9064 6.50439 79.5047 6.50439C77.1029 6.50439 75.0666 7.33979 73.3958 9.01058C71.725 10.6814 70.8896 12.6654 70.8896 15.0672ZM79.5047 11.7256C81.4365 11.7256 82.794 13.0831 82.794 15.0672C82.794 17.0513 81.4365 18.4088 79.5047 18.4088C77.6772 18.4088 76.2675 17.0513 76.2675 15.0672C76.2675 13.1353 77.6772 11.7256 79.5047 11.7256ZM92.2967 21.176C90.6259 19.5052 89.7905 17.469 89.7905 15.0672C89.7905 12.6654 90.6259 10.6814 92.2967 9.01058C93.9675 7.33979 96.0038 6.50439 98.4055 6.50439C100.807 6.50439 102.896 7.33979 104.514 9.01058C106.185 10.6814 107.021 12.6654 107.021 15.0672C107.021 17.469 106.185 19.5052 104.514 21.176C102.844 22.8468 100.807 23.63 98.4055 23.63C96.0038 23.63 93.9675 22.7946 92.2967 21.176ZM101.643 15.0672C101.643 13.0831 100.285 11.7256 98.3533 11.7256C96.5259 11.7256 95.1162 13.1353 95.1162 15.0672C95.1162 17.0513 96.5259 18.4088 98.3533 18.4088C100.285 18.4088 101.643 17.0513 101.643 15.0672ZM133.545 23.1601V13.2398C133.545 9.06279 131.195 6.50439 127.436 6.50439C125.399 6.50439 123.885 7.18315 122.737 8.59288C121.849 7.18315 120.439 6.50439 118.612 6.50439C116.68 6.50439 115.218 7.18315 114.226 8.48846V6.9743H108.848V23.1601H114.226V14.3362C114.226 12.6654 115.009 11.6212 116.471 11.6212C117.829 11.6212 118.507 12.3522 118.507 13.8663V23.1601H123.885V14.3362C123.885 12.6654 124.668 11.6212 126.13 11.6212C127.436 11.6212 128.114 12.3522 128.114 13.8663V23.1601H133.545Z" fill="#F8E800"/>
</svg>
