<svg width="20" height="20" fill="none" xmlns="http://www.w3.org/2000/svg"><path fill-rule="evenodd" clip-rule="evenodd" d="M0 10C0 4.48 4.47 0 9.99 0 15.52 0 20 4.48 20 10S15.52 20 9.99 20C4.47 20 0 15.52 0 10Zm11.793 1.697H9.827v.872h3.536v1.395H9.827v1.586H7.654v-1.586h-1.19V12.57h1.19v-.872h-1.19V9.778h1.19V4.45h4.139c1.046 0 1.934.365 2.648 1.078a3.51 3.51 0 0 1 1.094 2.6c0 1.016-.365 1.872-1.078 2.554-.714.682-1.602 1.015-2.664 1.015Zm0-5.201H9.827v3.282h1.966c.888 0 1.57-.714 1.57-1.65 0-.935-.682-1.632-1.57-1.632Z" fill="#737373"></path></svg>