<svg width="32" height="32" fill="none" xmlns="http://www.w3.org/2000/svg"><path fill-rule="evenodd" clip-rule="evenodd" d="M19.093 6.488A9.983 9.983 0 0 0 16 6C10.48 6 6 10.48 6 16s4.48 10 10 10 10-4.48 10-10c0-1.08-.171-2.119-.488-3.093a5.5 5.5 0 0 1-6.419-6.419ZM19 12c0-1.66-1.34-3-3-3s-3 1.34-3 3 1.34 3 3 3 3-1.34 3-3Zm-3 11.2a7.2 7.2 0 0 1-6-3.22c.03-1.99 4-3.08 6-3.08 1.99 0 5.97 1.09 6 3.08a7.2 7.2 0 0 1-6 3.22Z" fill="#737373"></path><circle cx="24.5" cy="7.5" r="3.5" fill="#FF0025"></circle></svg>